D:\school\WTK\thesis\model\3dpredictsim\Results\debug_batch\Pog_s1_tmt_bCst_d05_k1000_ig24_act_TTC_GRF.mot
nRows=12
nColumns=19

name D:\school\WTK\thesis\model\3dpredictsim\Results\debug_batch\Pog_s1_tmt_bCst_d05_k1000_ig24_act_TTC_GRF.mot
datacolumns 19
datarows 12
range 0.6182868938 0.7543100105
endheader
time 	ground_force_vx	ground_force_vy	ground_force_vz	ground_force_px	ground_force_py	ground_force_pz	1_ground_force_vx	1_ground_force_vy	1_ground_force_vz	1_ground_force_px	1_ground_force_py	1_ground_force_pz	ground_torque_x	ground_torque_y	ground_torque_z	1_ground_torque_x	1_ground_torque_y	1_ground_torque_z
        0.6182868938	      110.5787800305	      440.8004308767	        0.8802243694	        0.4203005066	        0.0000000000	        0.0370952086	      -44.5663643340	       35.2336950756	      -11.2989817124	        0.9739826378	        0.0000000000	       -0.0508246843	        0.0000000000	        0.0000000000	        0.0000000000	        0.0000000000	        0.0000000000	        0.0000000000	
        0.6306526317	       79.2447316836	      339.6753003017	        5.8193999253	        0.4275636898	        0.0000000000	        0.0344292885	     -117.5568378815	      121.0586767990	      -42.8982618661	        0.9819791081	        0.0000000000	       -0.0489351541	        0.0000000000	        0.0000000000	        0.0000000000	        0.0000000000	        0.0000000000	        0.0000000000	
        0.6430183696	       43.4408473532	      224.0610622304	       12.8539873055	        0.4408937110	        0.0000000000	        0.0291642679	      -61.8466200376	      305.0466562626	      -15.2702738765	        0.9874303151	        0.0000000000	       -0.0470645563	        0.0000000000	        0.0000000000	        0.0000000000	        0.0000000000	        0.0000000000	        0.0000000000	
        0.6553841075	       25.9135840619	      168.3899061987	       14.8533722034	        0.4493464563	        0.0000000000	        0.0253492570	      -62.3381569853	      508.5877261943	        5.1716555473	        0.9904498980	        0.0000000000	       -0.0469172202	        0.0000000000	        0.0000000000	        0.0000000000	        0.0000000000	        0.0000000000	        0.0000000000	
        0.6677498453	       22.7298723619	      133.1424270790	       15.8094915961	        0.4497087418	        0.0000000000	        0.0254748197	     -107.1839776773	      715.4829323463	       14.0894068016	        0.9986877987	        0.0000000000	       -0.0487955317	        0.0000000000	        0.0000000000	        0.0000000000	        0.0000000000	        0.0000000000	        0.0000000000	
        0.6801155832	       14.0805354462	       87.7086578000	       15.9643735494	        0.4500137502	        0.0000000000	        0.0256904555	     -141.4309771283	      856.8857640436	       20.1577230883	        1.0070737115	        0.0000000000	       -0.0507971930	        0.0000000000	        0.0000000000	        0.0000000000	        0.0000000000	        0.0000000000	        0.0000000000	
        0.6924813211	       -0.2334368547	       35.8484826710	        8.5950733186	        0.4494854885	        0.0000000000	        0.0255767388	     -149.4570532153	      887.3554182016	       20.6352435574	        1.0125889764	        0.0000000000	       -0.0519861707	        0.0000000000	        0.0000000000	        0.0000000000	        0.0000000000	        0.0000000000	        0.0000000000	
        0.7048470590	        0.2268745105	       -0.2244518925	       -0.0014962306	        0.0000000000	        0.0000000000	        0.0000000000	     -139.2647830843	      864.8473443353	       19.6223842306	        1.0165437963	        0.0000000000	       -0.0526906244	        0.0000000000	        0.0000000000	        0.0000000000	        0.0000000000	        0.0000000000	        0.0000000000	
        0.7172127968	        0.0014760789	       -0.0011646134	        0.0001032501	        0.0000000000	        0.0000000000	        0.0000000000	     -122.0566042666	      820.9531321395	       18.5660564571	        1.0201235744	        0.0000000000	       -0.0530951846	        0.0000000000	        0.0000000000	        0.0000000000	        0.0000000000	        0.0000000000	        0.0000000000	
        0.7295785347	        0.0023679228	       -0.0015979061	        0.0001929730	        0.0000000000	        0.0000000000	        0.0000000000	     -106.5799156134	      775.3230085500	       17.7546922987	        1.0239131121	        0.0000000000	       -0.0532450625	        0.0000000000	        0.0000000000	        0.0000000000	        0.0000000000	        0.0000000000	        0.0000000000	
        0.7419442726	        0.0313479053	       -0.0189116760	        0.0026358338	        0.0000000000	        0.0000000000	        0.0000000000	      -93.1570815088	      735.8964018781	       17.2603228614	        1.0280213374	        0.0000000000	       -0.0532411488	        0.0000000000	        0.0000000000	        0.0000000000	        0.0000000000	        0.0000000000	        0.0000000000	
        0.7543100105	       -0.1573323193	        0.0870080011	       -0.0132087661	        0.0000000000	        0.0000000000	        0.0000000000	      -82.7792192431	      706.2268492725	       17.0105125869	        1.0328052616	        0.0000000000	       -0.0530761991	        0.0000000000	        0.0000000000	        0.0000000000	        0.0000000000	        0.0000000000	        0.0000000000	
